<svg xmlns="http://www.w3.org/2000/svg" viewBox="0 0 800 400" role="img" aria-label="Konferencja i wydarzenia">
  <rect width="800" height="400" fill="#EAF3FB"/>
  <rect y="318" width="800" height="82" fill="#dbe8f5"/>
  <!-- mównica -->
  <g transform="translate(360,150)">
    <rect x="-34" y="60" width="68" height="110" fill="#0F75BC"/>
    <rect x="-44" y="48" width="88" height="20" rx="4" fill="#10314F"/>
    <line x1="6" y1="48" x2="34" y2="6" stroke="#10314F" stroke-width="5" stroke-linecap="round"/>
    <circle cx="38" cy="2" r="9" fill="#10314F"/>
    <circle cx="0" cy="20" r="26" fill="#F7C400"/>
  </g>
  <!-- publiczność -->
  <g fill="#9bbcd8">
    <circle cx="120" cy="250" r="22"/><rect x="100" y="272" width="40" height="46" rx="14"/>
    <circle cx="185" cy="258" r="20"/><rect x="167" y="278" width="36" height="40" rx="12"/>
    <circle cx="610" cy="252" r="22"/><rect x="590" y="274" width="40" height="44" rx="14"/>
    <circle cx="672" cy="260" r="19"/><rect x="655" y="279" width="34" height="39" rx="12"/>
  </g>
  <!-- balony -->
  <circle cx="540" cy="80" r="26" fill="#E6007E"/><line x1="540" y1="106" x2="540" y2="150" stroke="#10314F" stroke-width="2"/>
  <circle cx="590" cy="100" r="22" fill="#43B649"/><line x1="590" y1="122" x2="590" y2="160" stroke="#10314F" stroke-width="2"/>
  <g transform="translate(700,300)">
    <polygon points="28,0 16,22 40,22" fill="#0F75BC"/>
    <polygon points="14,26 2,48 26,48" fill="#F7C400"/>
    <polygon points="42,26 30,48 54,48" fill="#E6007E"/>
    <polygon points="16,25 40,25 28,47" fill="#43B649"/>
  </g>
</svg>
